<?xml version="1.0" encoding="UTF-8" standalone="no"?>
<svg
   version="1.1"
   id="Layer_1"
   x="0px"
   y="0px"
   width="100%"
   viewBox="0 0 512 512"
   enable-background="new 0 0 512 512"
   xml:space="preserve"
   sodipodi:docname="mimirTool.svg"
   inkscape:version="1.4.2 (ebf0e940, 2025-05-08)"
   inkscape:export-filename="mimirTool.png"
   inkscape:export-xdpi="96"
   inkscape:export-ydpi="96"
   xmlns:inkscape="http://www.inkscape.org/namespaces/inkscape"
   xmlns:sodipodi="http://sodipodi.sourceforge.net/DTD/sodipodi-0.dtd"
   xmlns="http://www.w3.org/2000/svg"
   xmlns:svg="http://www.w3.org/2000/svg"><defs
   id="defs35" /><sodipodi:namedview
   id="namedview35"
   pagecolor="#505050"
   bordercolor="#ffffff"
   borderopacity="1"
   inkscape:showpageshadow="0"
   inkscape:pageopacity="0"
   inkscape:pagecheckerboard="1"
   inkscape:deskcolor="#505050"
   inkscape:zoom="2.8284271"
   inkscape:cx="378.30213"
   inkscape:cy="264.10438"
   inkscape:window-width="3424"
   inkscape:window-height="1357"
   inkscape:window-x="2575"
   inkscape:window-y="227"
   inkscape:window-maximized="0"
   inkscape:current-layer="Layer_1" />



































<path
   fill="#f5444e"
   opacity="1"
   stroke="none"
   d="m 207.23369,141.48538 c 0.40839,7.96272 1.22292,16.42499 1.23342,24.38825 0.086,65.25356 0.0318,130.50732 0.0307,195.76102 -4e-5,2.9953 0.51928,6.06317 0.0172,8.96222 -0.37898,2.1882 -2.00467,4.16049 -3.80209,6.33905 -1.75748,0.21124 -2.78833,0.31234 -4.27016,0.31231 -10.48457,-1.83865 -20.83077,-2.58767 -30.45183,-5.62985 -7.54585,-2.38599 -14.19469,-7.60879 -21.43433,-11.84231 -3.32308,-3.49888 -9.21134,-4.41452 -8.92117,-10.8324 -0.35837,-0.45926 -0.63321,-0.66724 -0.90204,-0.87613 0.006,-8.9e-4 -0.0161,0.0133 -8.8e-4,-0.39353 -0.72214,-2.70681 -0.75319,-5.86193 -2.32079,-7.15658 -6.28457,-5.19043 -8.00676,-12.37402 -9.57664,-19.64902 -1.07619,-4.98712 -1.61562,-10.09006 -2.39499,-15.14123 0.82271,-0.18601 1.64542,-0.37204 2.46814,-0.55805 0.61815,2.07004 1.49777,4.10327 1.79545,6.21842 0.49259,3.49984 2.04445,4.63019 5.69883,4.40963 8.11827,-0.48996 15.30554,-3.46643 22.67613,-6.57522 14.4452,-6.09275 23.80234,-16.65186 27.38751,-31.50128 3.62462,-15.01287 4.51549,-30.46647 2.17931,-45.88408 -0.59822,-3.94808 -1.97913,-7.77754 -3.00045,-11.6615 -0.53834,-0.0629 -1.0767,-0.12584 -1.61506,-0.18875 -1.09172,1.68376 -2.18344,3.36754 -3.54616,5.24534 -1.75635,2.73204 -3.2417,5.27005 -5.03802,7.94207 -1.65215,1.09336 -3.15871,1.88732 -4.30913,3.03749 -12.54856,12.54594 -27.88069,17.93527 -45.50228,17.55743 -0.62963,-1.10217 -1.14159,-1.93069 -1.67616,-3.20389 -0.12454,-2.82092 -0.22648,-5.19719 -0.27466,-8.017 0.015,-3.12808 -0.0238,-5.81259 0.07,-8.81305 0.16073,-0.77165 0.18884,-1.22738 0.43692,-1.94696 0.0169,-1.76074 -0.18609,-3.25764 -0.48369,-4.98559 -0.0946,-0.23103 -0.38887,-0.63436 -0.25308,-1.08991 0.229,-2.61068 0.35184,-4.76503 0.41096,-6.92109 0.73744,-26.89507 11.00444,-48.9794 33.30903,-64.65694 15.64825,-10.99891 32.88472,-16.32992 52.05999,-12.64887 z"
   id="path3"
   sodipodi:nodetypes="csssccscccccsccsssssccccccccccccssc" /><path
   fill="#2a90ab"
   opacity="1"
   stroke="none"
   d="m 250.24802,249.59739 c -10.11366,-8.16091 -10.74818,-19.50312 -10.82335,-30.63219 -0.1777,-26.31302 0.10196,-52.63135 0.45955,-78.94395 0.0734,-5.39701 0.39012,-11.10274 2.18094,-16.09742 3.40392,-9.49361 11.27737,-13.5568 21.08282,-13.78274 8.82666,-0.20339 17.66077,-0.10573 26.49158,-0.10646 58.48404,-0.005 116.96808,-0.0221 175.45212,0.0174 13.24054,0.009 21.44284,7.04966 22.97293,19.42145 0.8291,6.70398 -2.12137,12.03476 -6.40555,16.68926 -20.75491,22.54893 -41.59128,45.02292 -62.40725,67.51561 -9.7291,10.51274 -19.47727,21.00783 -29.21683,31.51085 -8.88666,9.58325 -18.50791,12.1141 -29.69306,7.81085 -11.81674,-4.54627 -18.45074,-13.79884 -18.56738,-26.31265 -0.11932,-12.79816 -0.0264,-25.59832 -0.0264,-38.39759 l -1.88644,-0.88961 c -2.09314,2.0789 -4.26093,4.08842 -6.26758,6.24769 -16.21237,17.4453 -32.25555,35.05036 -48.63568,52.3363 -10.54239,11.12537 -21.16949,12.06713 -34.71039,3.61323 m 91.65567,-77.04905 c 3.13263,-3.35286 6.32801,-7.6119 9.91709,-10.37104 1.57183,-1.20835 5.08877,-0.56174 7.51776,-0.65508 -0.59589,2.20087 -0.16141,5.62933 -1.47113,7.25516 -2.90937,3.61151 -7.41962,6.40611 -10.20191,10.09367 -1.94253,2.5746 -3.60721,6.06696 -3.63818,9.16745 -0.121,12.11565 0.87936,24.25176 0.55426,36.3543 -0.2461,9.16229 3.36352,14.76013 10.11429,20.56542 6.25836,5.38189 21.13656,6.46976 26.86068,1.44005 5.6189,-4.93728 11.28232,-8.55482 16.30887,-14.10228 17.04065,-18.8065 33.84113,-37.83058 50.86112,-56.65602 6.46295,-7.14857 13.29013,-13.96715 19.91665,-20.96888 3.19022,-3.37092 5.88178,-7.38058 9.5419,-10.10202 5.89313,-4.38179 7.48877,-10.17566 6.39753,-16.66737 -1.00303,-5.96681 -4.39649,-10.98741 -10.54062,-12.81223 -5.02848,-1.49347 -10.31015,-2.74801 -15.51425,-2.89705 -8.43912,-0.24172 -16.90625,0.78255 -25.36228,0.79545 -56.3042,0.0859 -112.61014,0.26416 -168.91171,-0.12936 -12.04761,-0.0842 -21.35304,12.17396 -21.47142,20.79127 -0.41588,30.27657 -0.92317,60.55573 -0.81754,90.8319 0.0182,5.1983 3.65178,9.34271 6.18915,13.9904 6.44072,11.79745 24.34786,17.87587 35.23384,4.28403 7.45477,-9.30771 16.2352,-16.40291 24.33435,-25.19638 1.11978,-1.21584 2.10257,-2.55664 3.19043,-3.80323 7.74164,-8.87127 14.94812,-18.31091 23.46707,-26.36096 4.44443,-4.19983 6.40561,-8.4306 7.52405,-14.8472 z"
   id="path4"
   sodipodi:nodetypes="csssssssssssscccsccscssssssssssssssssssssssc" /><path
   fill="#1e232d"
   opacity="1"
   stroke="none"
   d="m 340.50925,277.17936 c 4.39749,5.55606 8.49585,10.94827 12.49051,16.41623 2.22345,3.04351 4.27414,6.21325 6.77072,9.86428 4.92947,-7.38797 9.37918,-14.1126 13.89834,-20.79022 1.11057,-1.64096 2.1702,-3.57393 3.75766,-4.56329 1.64035,-1.02234 4.15787,-1.83704 5.79786,-1.28241 1.3237,0.44769 2.67718,3.05342 2.70788,4.7258 0.26602,14.48978 0.26788,28.98495 0.26743,43.47855 -1.3e-4,3.02725 -1.3555,5.24072 -4.74036,5.19891 -3.54904,-0.0438 -4.81277,-2.05502 -4.76123,-5.54065 0.13995,-9.45816 0.048,-18.9198 0.048,-28.38004 -0.50222,-0.18545 -1.00442,-0.37091 -1.50665,-0.55639 -1.08758,1.44232 -2.24209,2.8396 -3.24942,4.33594 -2.41632,3.58914 -4.57297,7.36953 -7.18442,10.80685 -3.66565,4.82486 -6.53369,4.85095 -10.37899,0.0701 -2.91108,-3.61936 -5.39435,-7.58136 -8.1027,-11.36603 -0.91198,-1.27435 -1.93066,-2.47232 -3.97531,-3.37271 0,8.21738 0.0278,16.43491 -0.0236,24.65195 -0.0103,1.63498 0.23877,3.71737 -0.62567,4.79947 -1.38837,1.73794 -3.56619,3.85546 -5.48147,3.92758 -2.94001,0.11075 -3.53125,-2.69544 -3.51203,-5.49204 0.0904,-13.16037 0.0205,-26.32171 0.0687,-39.48254 0.005,-1.4639 0.21661,-2.98236 0.64734,-4.37839 1.05603,-3.42238 3.12255,-5.0325 7.0874,-3.07098 z"
   id="path5" /><path
   fill="#1f232d"
   opacity="1"
   stroke="none"
   d="m 286.14322,276.19764 c 4.41974,-0.12995 5.46091,2.68467 5.48556,5.85003 0.11033,14.15787 0.0516,28.31714 0.0356,42.4759 -0.003,2.96185 -0.88587,5.28149 -4.37445,5.51324 -3.79486,0.25207 -5.06192,-2.19101 -5.15323,-5.29858 -0.22507,-7.65747 -0.21478,-15.32187 -0.29096,-22.98359 -0.0176,-1.76947 -0.003,-3.53927 -0.90496,-5.6441 -3.17887,4.52563 -6.27918,9.10904 -9.55555,13.56293 -4.58227,6.22918 -7.62591,6.25839 -12.33215,0.0678 -3.47214,-4.5672 -6.72961,-9.29761 -11.28004,-13.6359 0,8.3671 0.0233,16.73429 -0.0109,25.10126 -0.0146,3.57007 0.97492,7.81915 -4.25082,8.70728 -3.10837,0.52829 -5.22884,-2.98618 -5.25103,-8.63373 -0.0471,-11.99161 -0.20439,-23.9906 0.18113,-35.97055 0.0949,-2.94797 1.34869,-7.44058 3.39265,-8.39757 3.66713,-1.71695 6.59528,1.71318 8.74614,4.83723 4.80743,6.98282 9.6022,13.97437 14.89935,21.68622 4.71631,-7.03753 8.97348,-13.68408 13.56165,-20.09372 1.87439,-2.61856 4.46539,-4.72413 7.10208,-7.14419 z"
   id="path6" /><path
   fill="#20242e"
   opacity="1"
   stroke="none"
   d="m 363.914,388.80182 c -0.036,1.46402 0.30106,2.77933 -0.20822,3.39789 -1.40506,1.70664 -2.95489,4.01288 -4.82983,4.45291 -3.16626,0.74308 -4.97223,-1.83517 -4.99305,-4.78143 -0.10366,-14.65906 -0.1206,-29.32211 0.18009,-43.97659 0.0395,-1.92645 2.02093,-5.35065 3.20535,-5.39582 2.4614,-0.0938 5.77167,0.91938 7.3577,2.70151 6.74316,7.57669 12.94623,15.63178 19.4267,23.44568 2.51132,3.02805 5.23516,5.87988 9.05184,8.50879 0,-1.70053 0.01,-3.40112 -0.002,-5.10159 -0.0544,-8.16236 -0.23038,-16.32642 -0.11249,-24.48624 0.0439,-3.04123 1.33127,-5.48215 5.05377,-5.54852 3.83072,-0.0683 4.9241,2.31344 4.91971,5.47497 -0.0204,14.65918 -0.0225,29.32065 -0.34961,43.97419 -0.0375,1.68002 -1.91803,4.548 -3.20334,4.70202 -2.30911,0.27683 -5.49576,-0.37582 -7.10138,-1.91058 -3.69986,-3.53659 -6.68674,-7.82269 -9.93542,-11.82697 -5.72852,-7.06091 -11.43653,-14.13842 -17.15314,-21.20901 -0.44003,0.13583 -0.88007,0.27163 -1.3201,0.40747 0,8.90158 0,17.80316 0.0131,27.17132 z"
   id="path7" /><path
   fill="#222730"
   opacity="1"
   stroke="none"
   d="m 467.41705,293.68665 c -2.03415,4.17728 -3.48474,8.41525 -6.17837,11.60272 -2.6568,3.14389 -2.40466,5.15836 -0.0604,8.02039 2.41404,2.94726 4.39335,6.24753 6.61927,9.35293 1.73706,2.42341 2.61227,4.78547 -0.37369,6.8653 -2.7533,1.91779 -5.14264,0.90744 -6.9707,-1.4165 -3.38602,-4.30448 -6.28937,-9.03437 -10.00656,-13.01477 -2.10544,-2.25455 -5.25589,-3.93815 -8.24918,-4.85157 -3.40506,-1.03909 -5.80951,0.65024 -5.74677,4.6857 0.0518,3.32727 0.093,6.65689 0.0242,9.98313 -0.0647,3.12738 -1.56167,5.06106 -4.88394,5.04901 -3.36371,-0.0122 -4.76303,-2.06177 -4.77179,-5.14047 -0.0407,-14.31467 -0.16772,-28.63294 0.15995,-42.94022 0.0442,-1.93057 2.47476,-5.43251 3.8254,-5.44476 9.16275,-0.0832 18.45527,-2.05036 27.40741,2.38366 6.31574,3.12818 9.19831,7.70255 9.2052,14.86545 m -10.19213,-5.16205 c -1.58973,-1.06485 -3.11887,-2.92056 -4.78043,-3.04788 -5.207,-0.39908 -10.46393,-0.14673 -15.86551,-0.14673 0,2.15216 8.9e-4,3.96326 -1.2e-4,5.77432 -0.007,11.88959 -0.007,11.88959 12.08475,10.54801 8.09796,-0.8985 10.3992,-4.07459 8.56131,-13.12772 z"
   id="path8" /><path
   fill="#21242e"
   opacity="1"
   stroke="none"
   d="m 251.0704,396.72983 c -3.48748,-1.27325 -6.68374,-2.24728 -9.62646,-3.72589 -3.19124,-1.60348 -4.73773,-4.77734 -3.42374,-7.95355 1.43695,-3.47348 4.56186,-1.86917 7.31267,-1.09625 4.77532,1.34179 9.61366,2.51159 14.48485,3.44366 3.98248,0.76212 7.35519,-0.27652 8.39831,-4.79547 1.01575,-4.4003 -1.78509,-6.44797 -5.33181,-7.66769 -4.39011,-1.50977 -8.86917,-2.7594 -13.3013,-4.14856 -7.2106,-2.26001 -10.80117,-6.59815 -10.83919,-13.05265 -0.0452,-7.66439 3.32191,-12.22525 10.79388,-14.72198 8.4356,-2.8187 16.59887,-2.36585 24.4467,1.96124 2.90567,1.60214 4.79776,3.73349 3.13981,7.28293 -1.62903,3.48746 -4.20218,2.66559 -7.16578,1.82388 -4.29415,-1.21969 -8.74069,-1.93176 -13.14798,-2.71539 -3.7496,-0.66669 -6.72938,1.42679 -7.09541,4.62113 -0.21843,1.90618 2.25649,5.02075 4.30495,6.091 3.73291,1.95032 8.09497,2.65784 12.11102,4.11426 5.56439,2.01791 10.84171,4.47638 12.29572,11.10577 1.72552,7.86761 -2.00397,15.66373 -9.80564,17.84747 -5.44449,1.52396 -11.41314,1.17527 -17.5506,1.58609 z"
   id="path9" /><path
   fill="#f6b46b"
   opacity="1"
   stroke="none"
   d="m 189.05519,396.5451 c -4.538,6.64087 -9.84867,7.01737 -19.52557,7.52608 -25.2454,1.32713 -50.79175,0.71758 -76.077527,0.90234 -10.965279,0.0801 -21.984482,0.1405 -32.890534,-0.80872 -15.173649,-1.32065 -30.329532,-17.54486 -31.577633,-33.54617 -2.001558,-25.66111 -2.872326,-51.38346 1.653366,-76.97736 2.268044,-12.82636 10.524533,-21.42186 20.361031,-28.31834 6.481354,-4.54419 14.217525,-7.07306 22.104144,-10.69408 2.575302,-0.0392 4.735215,0.32968 6.704942,0.3396 13.600838,0.0684 27.201991,0.072 40.843251,0.46074 -0.002,1.09286 0.83195,1.99948 0.36785,2.74555 -3.20927,-0.30901 -6.87909,-1.13332 -9.66014,-1.08463 -11.95327,0.2093 -23.918347,0.37077 -35.845669,1.09823 -4.192643,0.25572 -8.539429,1.53241 -12.388176,3.28308 -19.86195,9.03455 -30.057377,24.93972 -31.268425,46.4525 -0.802563,14.2566 -0.82465,28.55967 -1.059018,42.84421 -0.0777,4.73593 -0.0094,9.50864 0.487996,14.2121 0.881317,8.33423 5.063045,15.24957 9.726917,22.04996 6.420444,9.36163 15.907192,13.53414 26.315922,13.78866 27.126869,0.66339 54.165033,-0.30133 81.766383,-0.29959 6.39573,-0.31564 12.5028,0.24011 18.37333,-0.57471 6.45724,-0.89624 12.4939,-3.32601 19.12955,-4.55617 0.45042,0.3984 2.2484,0.87443 2.45801,1.15672 z"
   id="path10"
   sodipodi:nodetypes="csssssscsccsssssssccscc" /><path
   fill="#20232e"
   opacity="1"
   stroke="none"
   d="m 428.89716,363.91865 c -2.16004,8.07312 -0.26984,14.69726 5.74008,19.794 5.93222,5.03089 12.81555,4.76398 19.77527,2.44254 1.87399,-0.62506 3.66095,-1.53159 5.44799,-2.3917 2.56992,-1.23696 4.83945,-1.28332 6.37183,1.5293 1.54981,2.84458 0.7446,5.28964 -1.86243,6.8812 -15.70486,9.58737 -39.33886,6.48486 -45.45788,-16.01209 -3.09665,-11.38507 1.16489,-22.47369 10.34927,-29.01437 10.01633,-7.13312 24.20072,-7.69983 33.80481,-1.65955 3.35022,2.107 3.44113,5.11679 2.07312,7.68582 -0.64206,1.20578 -3.91705,1.41675 -5.97067,1.33847 -1.73038,-0.066 -3.41171,-1.22442 -5.12897,-1.86096 -11.65481,-4.32001 -20.26996,-0.57211 -25.14242,11.26734 z"
   id="path11" /><path
   fill="#228aa5"
   opacity="1"
   stroke="none"
   d="m 72.211805,254.03431 c -21.014103,-3.54899 -37.855293,-19.71459 -41.131184,-42.08024 -2.009716,-13.72099 -1.722099,-27.83088 -1.778484,-41.76893 -0.04495,-11.10909 -0.156834,-22.41553 1.739841,-33.2892 2.953938,-16.93497 18.635292,-28.80758 35.857602,-28.83146 31.78683,-0.0441 63.57647,0.23852 95.35969,-0.10308 20.34396,-0.21865 34.58142,8.64639 42.37736,27.40591 -1.30056,0.79568 -2.77264,1.42024 -3.81132,1.38038 -0.7555,-2.7327 -1.14263,-5.22616 -2.254,-7.33857 -4.53914,-8.62776 -12.5065,-13.08708 -21.19365,-16.26325 -6.85648,-2.50685 -13.82962,-3.45543 -21.40685,-2.4471 -7.11564,0.9469 -14.52758,-0.54702 -21.8123,-0.61196 -15.39542,-0.13725 -30.79378,-0.13844 -46.189121,0.002 -6.45308,0.059 -12.92054,1.11123 -19.348694,0.86316 -21.580044,-0.83284 -36.885521,19.85438 -36.867527,36.77826 0.01805,16.9769 -0.311703,33.96245 0.150852,50.92677 0.205398,7.53299 0.461849,15.6852 3.379131,22.38821 5.287468,12.14898 13.456211,22.48691 27.668911,26.27845 3.050491,1.97989 6.257512,3.91897 9.087934,5.83987 -0.02049,0.21466 0.200818,0.83216 0.200818,0.83216 z"
   id="path12"
   sodipodi:nodetypes="csssssccssssssssscccc" /><path
   fill="#21242e"
   opacity="1"
   stroke="none"
   d="m 301.98242,363.90912 c -3.8009,-5.27926 -7.53644,-10.17056 -10.92053,-15.29403 -0.85236,-1.29041 -1.3624,-4.16123 -0.64859,-4.82865 1.20612,-1.12777 3.75336,-1.82824 5.29929,-1.33566 2.02105,0.64401 4.01962,2.32468 5.32232,4.08231 4.5455,6.1329 8.78708,12.49105 13.65653,19.50119 3.30264,-4.63538 6.31463,-8.85279 9.31527,-13.07825 1.73114,-2.43781 3.25022,-5.06284 5.23517,-7.2706 1.26181,-1.40338 3.09339,-2.73441 4.87351,-3.09759 1.52102,-0.31028 3.7492,0.37673 4.85644,1.45358 0.6413,0.62369 0.14466,3.19198 -0.62808,4.36661 -4.2937,6.527 -8.63721,13.03985 -13.34109,19.2727 -3.9043,5.1734 -6.03278,10.57584 -5.11402,17.15042 0.36328,2.59979 0.0897,5.32813 -0.18582,7.96744 -0.32992,3.16144 -2.59512,4.08328 -5.40167,3.77216 -2.91199,-0.32285 -4.75061,-2.01752 -4.16452,-5.03797 2.04123,-10.51926 -2.11896,-19.14523 -8.15421,-27.62366 z"
   id="path13" /><path
   fill="#252731"
   opacity="1"
   stroke="none"
   d="m 411.68338,294.047 c -0.006,10.14539 -0.0196,19.79209 -0.0147,29.43881 0.002,3.29899 0.0285,6.70444 -4.60046,6.64325 -4.33496,-0.0573 -4.98746,-3.33895 -5.01789,-6.63961 -0.12896,-13.97013 -0.17257,-27.9415 -0.14065,-41.9122 0.007,-3.049 0.91699,-5.64664 4.81262,-5.56455 3.70175,0.078 4.86221,2.36348 4.91901,5.56113 0.0709,3.99051 0.0331,7.98291 0.0421,12.47317 z"
   id="path14" /><path
   fill="#181b26"
   opacity="1"
   stroke="none"
   d="m 307.29947,292.0478 c 0.0995,-4.29529 -0.23639,-8.19193 0.50604,-11.87091 0.32379,-1.60445 2.92105,-3.89689 4.37134,-3.81632 1.56357,0.0868 4.24854,2.55225 4.28732,4.03635 0.3942,15.09057 0.39719,30.19272 0.38111,45.29147 -0.003,2.89548 -1.91574,5.27524 -4.69236,4.23917 -1.89028,-0.70529 -4.1004,-3.55161 -4.20507,-5.54364 -0.5568,-10.59845 -0.49411,-21.2294 -0.64838,-32.33612 z"
   id="path15" /><path
   fill="#5d7688"
   opacity="1"
   stroke="none"
   d="m 200.82943,136.7246 c 1.00331,-0.37455 2.16289,-1.24911 3.47972,-1.70088 1.22485,1.74219 2.01117,4.49908 2.95477,6.64007 -19.143,-3.35946 -36.44197,1.47155 -52.09022,12.47046 -22.30459,15.67754 -32.57159,37.76187 -33.30903,64.65694 -0.0591,2.15606 0.0509,4.81035 -0.32649,7.56318 -0.45048,0.82821 -0.80774,0.57953 -1.08678,0.79291 -0.19657,-0.0587 -0.60017,-0.13246 -0.63248,-0.58356 -0.11625,-3.48635 -0.20019,-6.52163 -0.22274,-10.0151 1.20721,-8.96761 1.50113,-17.70253 3.68132,-25.93813 4.1705,-15.75398 15.15248,-27.1752 27.16548,-37.32721 9.76784,-8.25461 20.9603,-13.93371 34.27719,-14.35273 5.39338,-0.1697 10.72986,-1.59204 16.10926,-2.20595 z"
   id="path16"
   sodipodi:nodetypes="cccssccccsssc" /><path
   fill="#637a89"
   opacity="1"
   stroke="none"
   d="m 71.964977,253.55037 c 0.0131,-0.43223 -0.301596,-0.4048 0.05541,-0.54963 0.811325,-0.12597 1.265648,-0.10712 1.981362,-0.0602 0.432998,-0.008 0.604599,-0.0432 1.103363,-0.0626 0.762352,-0.006 1.19754,-0.0285 2.084656,0.0187 3.496559,0.0512 6.541191,0.0329 10.051193,0.0617 9.245263,0.0705 18.025819,0.0379 26.804729,0.14297 3.90746,0.0468 5.77758,-1.54561 5.84932,-5.59172 0.0269,-1.51588 1.37686,-3.88442 1.9866,-5.38996 0.10194,2.37626 1.3661,7.90991 1.29895,11.03906 -0.49808,1.89922 -2.08614,1.49588 -2.41513,2.6422 -13.60106,-0.0244 -27.357179,-0.76405 -40.958017,-0.83248 -1.969727,-0.01 -4.746004,0.08 -7.070558,-0.16526 0.206256,-0.67925 -0.788569,-0.70193 -0.778722,-1.02682 z"
   id="path17"
   sodipodi:nodetypes="scccccsscccscss" /><path
   fill="#efa86b"
   opacity="1"
   stroke="none"
   d="m 187.68854,397.86277 c -0.54756,-0.20529 -1.06709,-1.53361 -1.45052,-2.27455 1.14651,-2.53787 2.89302,-4.88825 4.56827,-7.00458 5.81285,-2.05231 8.97992,-5.70403 10.08744,-11.2343 1.03087,-0.10108 3.61136,-1.09322 5.02917,-1.16976 -3.52785,7.8877 -9.90556,17.09368 -18.23436,21.68319 z"
   id="path18"
   sodipodi:nodetypes="cccccc" /><path
   fill="#feab36"
   opacity="1"
   stroke="none"
   d="m 148.75257,401.00858 c -27.1434,0.0126 -54.297784,0.84866 -81.424653,0.18527 -10.40873,-0.25452 -20.707978,-4.11453 -27.128422,-13.47616 -4.663872,-6.80039 -8.0331,-14.40323 -8.914417,-22.73746 -0.49738,-4.70346 -1.190701,-9.85117 -1.112996,-14.5871 0.234368,-14.28454 0.381455,-28.08761 1.184018,-42.34421 1.211048,-21.51278 11.781475,-37.85545 31.643425,-46.89 3.848747,-1.75067 8.383033,-3.18361 12.575676,-3.43933 11.927322,-0.72746 23.829899,-0.42018 35.783169,-0.62948 2.78105,-0.0487 6.09475,-0.52559 9.37236,0.23538 0.87698,12.46776 1.37353,25.47355 1.72482,37.97715 -1.0189,15.67173 1.12132,30.25095 8.76423,43.49973 1.9627,3.40231 4.97011,6.20197 7.49757,9.27848 0,0 0.0221,-0.0142 0.10764,0.23019 0.35505,0.45755 0.62454,0.67074 0.89401,0.88394 -0.37373,6.16657 5.96653,6.53433 9.29138,10.40039 2.52729,3.06162 4.40854,6.03293 6.73735,8.84009 -0.81102,2.70694 -1.21635,5.2847 -2.49876,7.306 -3.98291,6.27771 -5.53446,12.80184 0.12398,20.27386 l -21.99836,-0.30993 c 0.002,0.50397 0.003,1.00793 0.005,1.5119 4.20651,0.2749 8.41269,-0.2404 12.56223,0.40239 1.69694,0.26285 4.46604,2.16759 6.05053,3.15645 z"
   id="path19"
   sodipodi:nodetypes="cssssssssccscccccscccscc" /><path
   fill="#ee4049"
   opacity="1"
   stroke="none"
   d="m 140.04743,349.68747 c -2.54263,-2.66968 -6.86495,-7.48279 -8.82765,-10.8851 -7.64291,-13.24878 -10.41319,-27.67733 -9.13231,-43.61508 0.43287,-2.5365 0.14346,-4.47367 0.62074,-6.3118 1.48499,-0.61664 3.05251,-1.05829 4.13773,-1.60773 5.17946,6.06986 14.43095,6.70984 20.43283,1.86188 1.72644,-1.3945 3.9888,-2.20831 6.11067,-3.00976 2.71536,-1.02564 5.5372,-1.76935 8.70494,-2.75666 -2.12543,-3.99594 -0.95262,-5.80725 2.73738,-7.06764 1.96954,-0.67274 3.77167,-2.70418 4.99417,-4.55513 8.29126,-12.55333 10.89664,-26.82237 11.78105,-41.47943 0.10123,-1.67766 -2.25849,-3.94414 -3.25896,-5.68825 1.09172,-1.68378 2.59022,-2.90266 3.68194,-4.58642 0.53836,0.0629 1.07672,0.12584 1.61506,0.18875 1.02132,3.88396 2.40223,7.71342 3.00045,11.6615 2.33618,15.41761 1.44531,30.87121 -2.17931,45.88408 -3.58517,14.84942 -12.94231,25.40853 -27.38751,31.50128 -7.37059,3.10879 -14.55786,6.08526 -22.67613,6.57522 -3.65438,0.22056 -5.20624,-0.90979 -5.69883,-4.40963 -0.29768,-2.11515 -1.1773,-4.14838 -1.79545,-6.21842 -0.82272,0.18601 -1.64543,0.37204 -2.46814,0.55805 0.77937,5.05117 1.3188,10.15411 2.39499,15.14123 1.56988,7.275 3.29207,14.45859 9.57664,19.64902 1.5676,1.29465 2.91356,6.46322 3.6357,9.17004 z"
   id="path20"
   sodipodi:nodetypes="cscccsscscsccccssssccssc" /><path
   fill="#e53d47"
   opacity="1"
   stroke="none"
   d="m 178.61939,224.26317 c 1.27147,1.55008 3.08882,4.32019 2.98759,5.99785 -0.88441,14.65706 -3.48979,28.9261 -11.78105,41.47943 -1.2225,1.85095 -3.02463,3.88239 -4.99417,4.55513 -3.69,1.26039 -4.86281,3.0717 -2.73738,7.06764 -3.16774,0.98731 -5.98958,1.73102 -8.70494,2.75666 -2.12187,0.80145 -4.38423,1.61526 -6.11067,3.00976 -6.00188,4.84796 -15.25337,4.20798 -20.43283,-1.86188 -1.08522,0.54944 -2.8308,1.79921 -4.33016,1.94637 -0.35019,-8.78374 -0.61784,-19.38225 -0.25037,-27.69959 2.05071,2.26306 5.10432,5.85386 6.1906,8.3451 1.57811,3.61912 2.88367,5.08034 6.90815,2.57759 3.28723,-2.0443 7.19908,-3.67398 11.00347,-4.15942 5.78022,-0.73755 9.71117,-3.46454 12.91372,-8.0443 3.11569,-4.45558 6.25976,-8.94776 9.8961,-12.96726 3.78284,-4.1815 5.75898,-9.15281 4.28874,-14.86573 1.48535,-2.53801 3.39685,-5.40531 5.1532,-8.13735 z"
   id="path21"
   sodipodi:nodetypes="cssscsscccssssscc" /><path
   fill="#d83d44"
   opacity="1"
   stroke="none"
   d="m 174.20123,231.97279 c 1.78121,5.57891 -0.77605,11.46063 -4.55889,15.64213 -3.63634,4.0195 -7.2453,8.16301 -10.36099,12.61859 -3.20255,4.57976 -7.1335,7.30675 -12.91372,8.0443 -3.80439,0.48544 -7.71624,2.11512 -11.00347,4.15942 -4.02448,2.50275 -5.33004,1.04153 -6.90815,-2.57759 -1.08628,-2.49124 -4.03032,-5.20543 -6.0899,-7.88324 -0.0404,-3.17728 0.85082,-5.76798 1.18046,-8.49564 17.50393,0.10418 33.04152,-4.72357 45.59008,-17.26951 1.15042,-1.15017 3.41243,-3.1451 5.06458,-4.23846 z"
   id="path22"
   sodipodi:nodetypes="csssssccsc" /><path
   fill="#228aa5"
   opacity="1"
   stroke="none"
   d="m 121.68355,242.54779 c -0.6635,1.94909 -1.76165,3.44596 -1.78854,4.96184 -0.0717,4.04611 -1.94186,5.63848 -5.84932,5.59172 -8.77891,-0.10504 -25.599599,0.18774 -34.620466,-0.13987 5.711868,-3.71001 19.730996,-7.33155 25.642926,-10.80695 1.9623,-1.15352 3.8651,-3.85057 5.60119,-3.69386 7.04944,0.63632 7.48266,-3.99039 8.13297,-8.83666 0.12083,-0.90043 0.65359,-2.24093 1.01468,-3.10913 0,0 0.43784,0.57372 0.6698,1.03145 0.53268,2.47327 0.83341,4.4888 1.13414,6.50435 0.0388,2.68452 0.0776,5.36903 0.0626,8.49711 z"
   id="path23"
   sodipodi:nodetypes="csscsssccccc" /><path
   fill="#f78f46"
   opacity="1"
   stroke="none"
   d="m 155.49193,368.90094 c -2.33325,-2.42343 -4.06384,-6.27134 -6.39884,-9.06196 7.04559,3.59533 13.352,9.39341 20.89785,11.7794 9.62106,3.04218 20.97452,3.24883 31.45909,5.08748 -0.65655,5.63138 -5.64445,12.38237 -11.4591,14.00035 0.67906,-5.70209 -0.99971,-10.09378 -5.66701,-11.73956 -9.61168,-3.38944 -19.31785,-6.39969 -28.83199,-10.06571 z"
   id="path24"
   sodipodi:nodetypes="ccscccc" /><path
   fill="#c25452"
   opacity="1"
   stroke="none"
   d="m 123.63436,253.76868 c -0.21198,3.00131 -0.54162,5.72899 -0.8624,8.8714 0.003,8.76695 -0.004,17.11916 0.004,25.94086 -0.12082,2.26965 -0.25602,4.06985 -0.6532,6.13605 -0.64896,-11.76728 -1.03593,-23.80059 -1.49124,-36.28586 -0.0259,-1.18051 0.0165,-1.90908 0.0188,-3.00196 0.28878,-1.51063 0.61776,-2.65693 1.13845,-4.11148 0.70366,0.5203 1.21562,1.34882 1.84524,2.45099 z"
   id="path25" /><path
   fill="#637a89"
   opacity="1"
   stroke="none"
   d="m 121.71482,234.70327 c -0.43336,-1.69962 -1.40443,-4.98286 -1.74055,-7.39744 0.0471,-0.67112 0.88058,-0.62319 1.19528,-0.99584 0.14837,-0.14216 0.79134,0.1062 0.84032,0.7553 0.13574,2.04318 0.33874,3.59223 0.42549,4.98633 -0.0281,0.45574 -0.55979,1.88 -0.72057,2.65165 z"
   id="path26"
   sodipodi:nodetypes="ccccccc" /><path
   fill="#c25452"
   opacity="1"
   stroke="none"
   d="m 121.75576,227.45127 c -125.9984006,-203.40964 -125.9984006,-203.40964 0,0 z"
   id="path27"
   sodipodi:nodetypes="cc" /><path
   fill="#ee4049"
   opacity="1"
   stroke="none"
   d="m 139.63544,348.94367 c -0.18592,0.0381 -0.4554,-0.17508 -0.81647,-0.63177 0.18326,-0.0355 0.4581,0.17251 0.81647,0.63177 z"
   id="path28" /><path
   fill="#018fbb"
   opacity="1"
   stroke="none"
   d="m 342.35678,172.95951 c -0.94653,6.06793 -3.53271,10.2362 -7.97714,14.43603 -8.51895,8.05005 -15.72543,17.48969 -23.46707,26.36097 -1.08786,1.24658 -2.07065,2.58738 -3.19043,3.80322 -8.09915,8.79347 -16.75458,17.13867 -24.20935,26.44638 -10.88599,13.59184 -30.54312,7.76343 -36.98384,-4.03403 -2.53737,-4.64769 -4.54601,-10.2921 -4.56415,-15.4904 -0.10564,-30.27617 0.40166,-60.55533 0.81753,-90.8319 0.11838,-8.61731 9.42382,-20.87547 21.47142,-20.79127 56.30158,0.39352 112.60752,0.21525 168.91172,0.12936 8.45602,-0.0129 16.92315,-1.03717 25.36227,-0.79545 5.2041,0.14905 10.48578,1.40358 15.51425,2.89705 6.14414,1.82483 9.5376,6.84543 10.54062,12.81223 1.09125,6.49172 -0.50439,12.28558 -6.39752,16.66737 -3.66013,2.72144 -6.35168,6.7311 -9.5419,10.10202 -6.62653,7.00174 -13.45371,13.82031 -19.91666,20.96888 -17.01999,18.82544 -33.82046,37.84952 -50.86111,56.65603 -5.02655,5.54745 -10.31497,10.91499 -15.93387,15.85228 -5.72412,5.0297 -21.35233,3.44183 -27.61069,-1.94005 -6.75076,-5.8053 -9.98538,-12.65314 -9.73929,-21.81543 0.32511,-12.10254 -0.76901,-24.23865 -0.64801,-36.3543 0.031,-3.10049 1.7894,-6.59285 3.73194,-9.16745 2.78229,-3.68756 6.73004,-6.48216 9.6394,-10.09367 1.30972,-1.62582 1.31275,-4.30429 1.90863,-6.50516 -2.42898,0.0933 -5.57092,-0.74077 -7.14276,0.46758 -3.58908,2.75914 -6.40945,6.51819 -9.71399,10.21971 z"
   id="path29" /><path
   fill="#fba33b"
   opacity="1"
   stroke="none"
   d="m 155.74773,368.43546 c 9.51859,3.28229 18.96451,7.14175 28.57619,10.53119 4.6673,1.64578 7.46956,3.94546 6.43561,9.68466 -1.31856,2.51355 -2.63892,4.59274 -4.02628,7.01447 -6.46179,1.68884 -12.80838,3.38253 -19.26562,4.27877 -5.87053,0.81482 -11.86138,0.7627 -18.25711,1.07834 -2.04244,-1.00317 -3.53309,-2.59799 -5.23003,-2.86084 -4.14954,-0.64279 -8.85935,-0.05 -13.06586,-0.32491 -0.002,-0.50396 -0.0808,-2.28638 -0.0824,-2.79035 l 21.14606,0.6586 c -5.65844,-7.47202 -2.71222,-13.68622 1.27069,-19.96393 1.28241,-2.0213 1.68774,-4.59906 2.49876,-7.306 z"
   id="path31"
   sodipodi:nodetypes="csccscscccsc" /><path
   fill="#018fba"
   opacity="1"
   stroke="none"
   d="m 200.82531,136.74769 c -5.34403,1.02832 -10.71176,2.01316 -16.10514,2.18286 -13.31689,0.41902 -24.50935,6.09812 -34.27719,14.35273 -12.013,10.15201 -22.99498,21.57323 -27.16548,37.32721 -2.18019,8.2356 -1.97417,16.89519 -3.50735,25.87641 -1.42817,0.8085 -2.96892,1.22056 -4.40553,1.54937 -2.47564,-0.0522 -4.69186,-0.58679 -6.61086,-0.0529 -6.96001,1.9363 -13.691751,4.98233 -20.75245,6.19063 -7.935188,1.35797 -11.475517,6.98874 -15.702301,12.50186 -2.847809,3.71449 -5.216683,8.24616 -8.421547,11.68691 -14.0131,-3.51789 -23.588093,-15.16832 -28.875561,-27.3173 -2.917282,-6.70301 -2.892483,-14.85522 -3.097881,-22.38821 -0.462555,-16.96432 -0.132801,-33.94987 -0.150852,-50.92677 -0.01799,-16.92388 15.287483,-37.6111 36.867527,-36.77827 6.428154,0.24808 12.895614,-0.8042 19.348694,-0.86316 15.395341,-0.14066 30.793701,-0.13947 46.189121,-0.002 7.28472,0.0649 14.69666,1.55886 21.8123,0.61196 7.57723,-1.00833 14.55037,-0.0598 21.40685,2.44711 8.68715,3.17617 16.65451,7.63549 21.19365,16.26325 1.11137,2.11241 1.4985,4.60587 2.254,7.33857 z"
   id="path32"
   sodipodi:nodetypes="csssccssscssssssssscc" /><path
   fill="#028ab3"
   opacity="1"
   stroke="none"
   d="m 62.952055,247.32389 c 3.005271,-3.7144 6.499145,-6.93357 9.346954,-10.64806 4.226784,-5.51312 7.767113,-11.14389 15.702301,-12.50186 7.060699,-1.2083 13.79244,-4.25433 20.75245,-6.19063 1.919,-0.53386 4.12153,-0.54718 6.59601,-0.0629 0.36726,8.15584 0.0616,8.70492 -7.25576,9.27711 -2.85898,0.22354 -5.67649,2.0182 -8.33146,3.43684 -1.71142,0.91448 -3.12992,2.40428 -4.615664,3.70917 -5.918708,5.19814 -11.844902,10.3891 -17.665901,15.69508 -0.59806,0.54514 -0.06669,1.93687 -0.297997,2.88438 -0.435188,0.0224 -1.322376,0.22971 -2.191494,0.0998 -0.70861,-0.0446 -1.127118,-0.10147 -1.401807,0.006 -0.454323,-0.0189 -0.847009,-0.10618 -1.631001,0.0859 -3.187416,-1.77608 -5.956133,-3.81104 -9.006631,-5.79093 z"
   id="path33"
   sodipodi:nodetypes="cssscsscscccccc" /><path
   fill="#0385a9"
   opacity="1"
   stroke="none"
   d="m 77.178715,252.94083 c -0.22062,-1.017 -0.29579,-2.35704 0.30227,-2.90218 5.820999,-5.30598 11.747193,-10.49694 17.665901,-15.69508 1.485744,-1.30489 2.904244,-2.79469 4.615664,-3.70917 2.65497,-1.41864 5.47248,-3.2133 8.33146,-3.43684 7.31739,-0.57219 7.17787,-1.14182 7.20641,-9.28975 1.04196,-0.76877 2.95253,-1.22878 4.31932,-1.57909 0.4099,3.02167 0.0829,6.74865 0.19917,10.235 -0.32877,1.31929 -0.89577,2.15986 -1.0166,3.06029 -0.65031,4.84627 -1.08353,9.47298 -8.13297,8.83666 -1.73609,-0.15671 -3.63889,2.54034 -5.60119,3.69386 -5.91193,3.4754 -11.890929,6.8367 -18.068175,10.49962 -3.26902,0.27542 -6.324701,0.3379 -9.82126,0.28668 z"
   id="path34"
   sodipodi:nodetypes="ccssccccssccc" /><path
   fill="#228aa5"
   opacity="1"
   stroke="none"
   d="m 74.001745,252.94056 c 0.0133,-0.13561 0.287987,-0.24314 0.669433,-0.21475 -0.06483,0.17156 -0.236435,0.20721 -0.669433,0.21475 z"
   id="path35" /></svg>
