<?xml version="1.0" encoding="UTF-8" standalone="no"?>
<!DOCTYPE svg PUBLIC "-//W3C//DTD SVG 1.1//EN" "http://www.w3.org/Graphics/SVG/1.1/DTD/svg11.dtd">
<svg width="100%" height="100%" viewBox="0 0 1284 337" version="1.1" xmlns="http://www.w3.org/2000/svg" xmlns:xlink="http://www.w3.org/1999/xlink" xml:space="preserve" xmlns:serif="http://www.serif.com/" style="fill-rule:evenodd;clip-rule:evenodd;stroke-linejoin:round;stroke-miterlimit:2;">
    <g transform="matrix(1,0,0,1,-99.006012,-375.073181)">
        <path d="M199.9,427.427C205.266,431.807 210.631,436.188 216.487,440.962C228.086,450.035 239.141,458.787 250.327,467.367C256.003,471.72 260.385,471.561 266.113,467.185C268.873,465.076 271.515,462.812 274.211,460.619C280.395,455.734 286.58,450.849 293.274,445.582C303.347,437.527 312.91,429.855 322.473,422.183C326.843,418.795 331.213,415.407 336.077,411.636C338.093,410.005 339.615,408.755 341.137,407.506C343.197,405.958 345.257,404.41 347.824,402.48C358.929,393.929 369.528,385.76 380.127,377.59C382.155,377.007 384.183,376.423 386.767,375.807C387.895,375.559 388.468,375.343 389.041,375.127C390.101,375.146 391.162,375.165 392.945,375.29C395.439,375.614 397.208,375.833 398.978,376.052C402.021,377.788 405.065,379.524 408.56,381.718C410.963,384.553 412.914,386.93 414.864,389.307C415.604,392.63 416.343,395.954 417.265,400.13C417.445,418.233 417.405,435.481 417.458,452.73C417.483,460.84 417.688,468.951 417.811,477.061C417.72,479.407 417.629,481.753 417.528,484.959C417.62,488.899 417.722,491.98 417.825,495.061C416.524,498.093 415.05,500.493 411.405,496.253C405.642,491.173 400.351,486.529 395.061,481.885C388.788,476.191 382.694,470.282 376.186,464.87C370.729,460.332 364.18,460.841 357.887,465.706C327.995,488.813 298.12,511.944 268.255,535.086C259.636,541.765 254.666,541.776 245.962,535.066C216.451,512.315 186.935,489.568 157.408,466.837C150.73,461.695 145.472,461.919 139.115,467.513C129.743,475.759 120.374,484.008 110.515,492.648C108.003,494.968 105.979,496.896 103.956,498.825C102.672,498.556 101.389,498.288 99.84,497.43C99.436,490.901 99.297,484.961 99.258,478.597C99.292,476.442 99.226,474.71 99.272,472.522C99.484,446.799 99.585,421.532 99.686,396.266C99.992,395.442 100.297,394.618 100.807,393.249C101.306,391.801 101.6,390.897 101.895,389.994C101.895,389.994 102.17,389.74 102.455,389.341C106.193,385.39 109.648,381.839 113.102,378.287C115.484,377.481 117.866,376.674 120.826,375.833C122.277,375.557 123.149,375.315 124.022,375.073C124.764,375.12 125.506,375.166 126.93,375.346C132.676,377.703 138.04,379.432 142.722,382.282C147.783,385.364 152.206,389.493 156.908,393.165C159.646,395.41 162.384,397.655 165.601,400.307C177.354,409.618 188.627,418.523 199.9,427.427Z" style="fill:rgb(3,140,181);fill-rule:nonzero;"/>
    </g>
    <g transform="matrix(1,0,0,1,-99.006012,-375.073181)">
        <path d="M133.408,659.839C131.9,658.096 130.393,656.353 128.508,654.154C127.293,652.726 126.456,651.756 125.619,650.785C123.623,647.983 121.627,645.181 119.33,641.874C118.683,640.915 118.337,640.459 117.991,640.004C117.274,638.727 116.558,637.45 115.525,635.656C114.107,633.1 113.006,631.061 111.905,629.022C111.731,628.482 111.558,627.942 111.164,626.882C110.381,625.223 109.818,624.085 109.254,622.946C108.777,622.031 108.3,621.117 107.556,619.668C106.931,617.742 106.573,616.35 106.215,614.958C105.995,614.118 105.775,613.278 105.322,611.846C104.565,609.528 104.039,607.801 103.514,606.074C103.13,604.283 102.746,602.493 102.216,599.957C101.647,597.138 101.225,595.065 100.804,592.991C100.204,589.93 99.605,586.869 99.006,582.991C99.014,580.483 99.022,578.791 99.278,576.977C99.392,576.411 99.256,575.968 99.221,575.115C99.258,572.144 99.196,569.583 99.216,566.622C99.246,565.141 99.193,564.06 99.238,562.543C99.423,552.234 99.437,542.358 99.664,532.488C99.706,530.653 100.608,528.839 101.113,527.015C102.61,525.994 104.108,524.973 106.11,523.61C113.109,518.194 119.603,513.12 126.096,508.047C129.25,505.62 132.451,503.251 135.545,500.75C138.967,497.984 142.151,498.112 145.33,501.125C158.981,514.063 172.676,526.957 186.262,539.964C187.289,540.948 187.59,542.69 188.229,544.079C186.807,544.689 185.433,545.58 183.95,545.836C182.172,546.143 180.3,545.903 178.469,545.908C168.902,545.935 168.75,545.911 167.297,555.15C165.209,568.44 164.999,581.693 169.681,594.572C177.669,616.543 194.089,628.723 216.837,634.5C218.995,634.942 220.467,635.142 221.938,635.341C221.938,635.341 222.178,635.432 222.5,635.617C225.017,637.597 227.212,639.393 229.408,641.188C229.72,649.316 230.058,657.443 230.332,665.572C230.428,668.401 230.367,671.235 230.398,674.784C230.488,675.678 230.557,675.855 230.626,676.032C230.566,677.732 230.506,679.432 230.442,681.971C230.491,685.221 230.543,687.632 230.594,690.043C229.225,694.297 227.05,697.86 221.846,699.568C216.426,699.155 211.711,698.61 206.996,698.065C202.597,697.026 198.197,695.988 193.128,694.715C189.309,693.631 186.16,692.783 183.01,691.934C179.95,690.572 176.89,689.21 173.242,687.533C168.79,685.326 164.926,683.434 161.062,681.542C158.008,679.559 154.954,677.576 151.385,675.234C149.833,674.136 148.796,673.397 147.758,672.658C144.428,669.755 141.098,666.852 137.328,663.513C135.729,661.998 134.568,660.919 133.408,659.839Z" style="fill:rgb(242,78,84);fill-rule:nonzero;"/>
    </g>
    <g transform="matrix(1,0,0,1,-99.006012,-375.073181)">
        <path d="M415.302,599.697C414.09,604.695 413.137,609.777 411.569,614.66C410.599,617.679 408.449,620.299 407.247,623.267C401.047,638.567 391.323,651.636 380.228,663.477C374.341,669.76 366.356,674.079 358.786,679.623C356.757,680.926 355.26,681.89 353.763,682.854C349.968,684.646 346.173,686.438 341.806,688.514C340.484,689.164 339.734,689.531 338.983,689.899C335.782,690.956 332.581,692.013 328.685,693.326C324.308,694.593 320.623,695.605 316.939,696.617C316.195,698.261 315.164,699.843 314.791,701.567C314.453,703.132 315.291,705.015 314.779,706.463C314.131,708.295 312.896,710.158 311.387,711.328C310.805,711.779 308.639,710.569 307.448,709.749C306.251,708.923 305.369,707.64 304.128,705.939C301.866,703.12 299.825,700.92 297.784,698.72C295.488,696.061 293.193,693.402 290.481,690.266C288.858,688.474 287.65,687.157 286.442,685.84C284.908,684.144 283.373,682.449 281.467,680.221C278.65,677.019 276.204,674.35 273.758,671.681C272.888,670.81 272.018,669.939 270.839,668.499C268.879,664.741 264.238,662.869 266.194,658.091C279.581,643.043 292.922,627.953 306.435,613.018C307.64,611.686 310.393,610.322 311.648,610.844C313.101,611.449 314.151,614.031 314.54,615.926C315.033,618.325 314.766,620.901 314.681,623.395C314.544,627.402 316.245,627.998 319.604,626.407C345.433,614.171 361.273,594.159 365.057,565.742C367.381,548.291 368.061,530.618 369.403,513.039C369.742,508.59 370.888,504.398 375.657,503.405C378.135,502.889 381.673,503.581 383.621,505.127C389.451,509.756 394.73,515.079 400.232,520.122C404.939,524.437 409.854,528.551 414.263,533.15C415.814,534.766 416.41,537.495 416.948,539.83C417.499,542.221 417.445,544.752 417.681,548.063C417.762,551.598 417.816,554.291 417.871,556.984C417.393,568.378 416.915,579.772 416.393,592.015C416,595.142 415.651,597.419 415.302,599.697Z" style="fill:rgb(253,167,57);fill-rule:nonzero;"/>
    </g>
    <g transform="matrix(1,0,0,1,-99.006012,-375.073181)">
        <path d="M561.543,508.123C561.945,508.913 562.348,509.702 563.035,511.073C569.396,521.617 575.474,531.578 581.828,541.992C582.878,540.372 583.526,539.432 584.115,538.455C596.317,518.199 608.493,497.928 620.748,477.703C621.639,476.231 623.04,474.031 624.282,473.977C632.182,473.637 640.104,473.804 647.965,473.804L647.965,603.281L637.295,603.281C633.493,603.167 629.691,603.053 625.568,602.541C625.334,601.417 625.42,600.691 625.851,599.81C626.455,599.079 626.943,598.502 626.944,597.925C626.993,570.475 627.012,543.025 626.938,515.575C626.936,514.866 625.849,514.16 624.891,513.533C612.569,533.149 600.624,552.684 588.679,572.22C587.634,573.683 586.704,575.247 585.523,576.591C582.481,580.053 579.647,579.59 577.252,574.842C570.654,564.421 564.398,554.56 558.141,544.7C557.732,543.9 557.324,543.099 556.566,541.793C550.692,532.305 545.167,523.322 539.642,514.34C538.732,525.043 538.727,535.294 538.743,545.545C538.744,546.363 538.897,547.181 538.98,547.999C538.914,561.36 538.848,574.721 538.772,588.959C538.832,591.557 538.903,593.278 538.973,594.998C538.891,596.807 539.14,598.721 538.609,600.387C538.261,601.481 536.785,602.216 535.061,603.092C528.842,603.129 523.376,603.186 517.909,603.243C517.194,602.073 516.479,600.904 515.768,598.918C515.772,556.721 515.772,515.342 515.772,473.762C521.52,473.762 526.68,474.086 531.781,473.677C537.66,473.206 542.541,473.996 544.88,480.246C545.024,480.785 545.168,481.324 545.685,482.3C548.228,486.199 550.397,489.66 552.566,493.121C552.966,493.909 553.366,494.698 554.001,495.996C554.654,497.05 555.071,497.594 555.488,498.138C555.756,498.679 556.023,499.22 556.618,500.262C558.478,503.216 560.01,505.67 561.543,508.123Z" style="fill:rgb(25,34,50);fill-rule:nonzero;"/>
    </g>
    <g transform="matrix(1,0,0,1,-99.006012,-375.073181)">
        <path d="M793.844,546.986C793.63,547.476 793.416,547.967 793.081,549.224C792.746,552.473 792.358,554.954 792.346,557.437C792.278,571.095 792.34,584.754 792.245,598.411C792.234,600.106 791.56,601.797 791.194,603.49C790.589,603.38 789.985,603.269 788.755,603.142C782.417,603.12 776.705,603.116 770.993,603.111C770.993,603.111 770.83,602.821 770.656,602.358C770.479,593.275 770.504,584.655 770.463,576.035C770.417,566.73 770.648,557.406 770.129,548.127C769.647,539.515 764.839,534.778 757.003,533.958C754.625,533.929 752.247,533.901 749.075,533.98C737.809,537.799 733.295,544.288 733.221,556.126C733.133,570.282 733.194,584.439 733.17,598.596C733.167,600.024 733.02,601.452 732.943,602.821L711.13,602.821C711.13,602.821 711.069,602.924 711.102,602.441C711.135,572.912 711.135,543.866 711.135,514.257L730.973,514.257C731.561,514.672 732.15,515.086 732.717,516.184C732.696,519.777 732.696,522.687 732.696,525.241C737.701,521.767 742.483,518.448 747.265,515.129C747.465,515.115 747.665,515.1 748.528,514.927C752.978,514.12 756.763,513.472 760.548,512.825C762.112,513.01 763.677,513.196 765.921,513.486C770.371,514.869 774.143,516.148 777.914,517.427C779.287,518.529 780.659,519.632 782.464,521.146C784.645,523.658 786.392,525.76 788.143,527.865C797.576,515.502 809.97,511.599 824.601,513.674C837.899,515.56 846.148,523.305 849.995,536C850.033,537.211 850.07,538.421 850.409,540.312C850.755,561.656 850.797,582.32 850.84,602.984C849.479,603.02 848.118,603.055 846.021,603.073C841.052,603.077 836.812,603.244 832.592,603.031C831.302,602.966 830.065,601.857 828.922,600.821C828.946,583.616 828.852,566.815 828.846,549.702C828.772,548.56 828.61,547.73 828.448,546.9C828.124,545.449 827.8,543.999 827.192,541.938C823.604,538.901 820.301,536.474 816.997,534.047C814.629,533.987 812.26,533.928 809.058,533.865C800.747,535.294 795.743,539.438 793.844,546.986Z" style="fill:rgb(25,34,51);fill-rule:nonzero;"/>
    </g>
    <g transform="matrix(1,0,0,1,-99.006012,-375.073181)">
        <path d="M1079.965,598.875C1078.924,599.314 1077.882,599.752 1076.244,600.464C1061.927,606.1 1048.005,605.469 1033.991,602.151C1033.294,601.861 1032.598,601.572 1031.254,601.084C1020.92,597.336 1012.715,591.614 1005.803,583.993C1006.353,583.292 1006.903,582.59 1007.893,581.46C1012.524,576.676 1016.714,572.321 1020.903,567.965C1021.996,568.701 1023.089,569.436 1024.619,570.627C1030.892,577.052 1037.583,581.505 1046.008,582.877C1047.038,583.106 1048.068,583.335 1049.73,583.683C1050.912,583.772 1051.463,583.741 1052.403,583.815C1053.856,583.844 1054.92,583.767 1056.366,583.779C1064.223,582.429 1071.699,580.992 1073.967,571.998C1073.634,568.791 1073.301,565.584 1072.683,561.732C1069.39,558.659 1066.73,555.408 1063.307,553.961C1053.709,549.902 1043.796,546.587 1034.008,542.979C1033.53,542.666 1033.053,542.354 1032.053,541.789C1022.427,537.165 1015.794,530.459 1012.101,520.974C1011.896,519.838 1011.692,518.702 1011.344,516.818C1011.15,512.047 1011.1,508.025 1011.05,504.004C1011.638,501.854 1012.226,499.704 1013.041,496.922C1014.219,494.285 1015.169,492.279 1016.12,490.273C1016.542,489.8 1016.964,489.327 1017.758,488.372C1021.129,485.049 1024.128,482.208 1027.128,479.368C1027.705,479.113 1028.282,478.858 1029.402,478.309C1038.028,473.52 1046.92,472.653 1055.91,472.228C1057.678,472.452 1059.445,472.675 1061.98,472.997C1075.889,474.818 1086.943,480.504 1096.02,490.44C1094.446,492.366 1093,494.135 1091.554,495.903C1091.107,496.308 1090.659,496.712 1089.833,497.518C1087.209,500.345 1084.963,502.77 1082.718,505.196C1080.666,507.351 1079.366,505.825 1077.898,504.329C1071.749,498.06 1064.47,493.958 1055.54,493.563C1052.592,493.432 1049.52,493.688 1046.664,494.404C1039.87,496.107 1035.44,501.074 1034.839,507.046C1034.19,513.496 1036.904,518.443 1044.039,521.44C1053.975,525.612 1064.188,529.126 1074.86,533.217C1081.16,537.713 1086.883,541.913 1092.606,546.113C1093.28,547.251 1093.954,548.389 1094.901,550.133C1099.096,558.805 1098.867,567.259 1097.514,575.818C1096.31,578.857 1095.106,581.896 1093.579,585.481C1088.827,590.31 1084.396,594.592 1079.965,598.875Z" style="fill:rgb(25,34,51);fill-rule:nonzero;"/>
    </g>
    <g transform="matrix(1,0,0,1,-99.006012,-375.073181)">
        <path d="M1249.993,534.115C1246.048,534.144 1242.103,534.172 1237.434,534.438C1233.116,537.716 1229.521,540.758 1225.926,543.8C1225.183,545.595 1224.441,547.39 1223.501,549.91C1223.303,567.988 1223.303,585.341 1223.303,603.208L1201.988,603.208C1201.988,603.208 1201.585,602.984 1201.298,602.525C1201.012,573.008 1201.012,543.95 1201.012,514.228L1219.911,514.228C1220.531,514.388 1221.152,514.547 1222.075,515.233C1222.531,518.502 1222.684,521.244 1222.804,524.328C1223.457,524.451 1224.142,524.231 1225.145,523.874C1231.583,517.235 1239.464,514.416 1248.001,512.971C1250.043,512.995 1252.086,513.019 1254.803,513.151C1271.913,515.959 1280.61,523.639 1283.531,538.453C1284.295,542.327 1284.459,546.362 1284.502,550.328C1284.688,567.568 1284.726,584.809 1284.819,602.05C1283.381,602.409 1281.943,602.768 1279.82,603.121C1278.511,603.179 1277.888,603.244 1277.265,603.308C1276.783,603.252 1276.301,603.197 1275.063,603.126C1270.422,603.112 1266.536,603.112 1262.559,603.112C1262.559,593.026 1262.615,583.742 1262.543,574.46C1262.475,565.842 1262.683,557.192 1262.001,548.618C1261.422,541.349 1257.842,535.761 1249.993,534.115Z" style="fill:rgb(25,34,50);fill-rule:nonzero;"/>
    </g>
    <g transform="matrix(1,0,0,1,-99.006012,-375.073181)">
        <path d="M1143.698,637.857C1141.882,644.895 1136.131,641.579 1131.029,642.323C1126.719,642.374 1123.305,642.433 1119.892,642.492C1119.73,642.271 1119.568,642.051 1119.615,641.186C1120.557,638.361 1121.289,636.181 1122.021,634.001C1122.021,634.001 1122.272,633.778 1122.518,633.368C1126.634,623.263 1130.55,613.586 1134.323,603.854C1134.877,602.423 1135.371,600.476 1134.847,599.196C1130.029,587.41 1124.981,575.719 1119.999,564C1119.73,563.189 1119.461,562.378 1119.054,561.032C1118.531,559.751 1118.146,559.006 1117.761,558.26C1117.431,557.314 1117.101,556.368 1116.463,554.794C1114.173,549.618 1112.19,545.07 1110.207,540.522C1109.989,539.75 1109.77,538.978 1109.302,537.744C1108.728,536.848 1108.404,536.414 1108.08,535.979C1108.023,535.405 1107.966,534.832 1107.628,533.66C1104.919,527.37 1102.492,521.676 1100.065,515.982C1100.251,515.513 1100.438,515.042 1101.216,514.549C1107.88,514.522 1113.957,514.375 1120.019,514.621C1121.474,514.68 1122.877,516.042 1124.303,516.804C1124.576,518.067 1124.849,519.329 1125.494,521.226C1128.262,527.663 1130.658,533.465 1133.055,539.268C1133.73,541.392 1134.405,543.516 1135.422,546.258C1136.631,548.868 1137.5,550.861 1138.368,552.855C1138.968,554.79 1139.569,556.725 1140.569,559.245C1142.754,564.347 1144.54,568.864 1146.788,574.552C1149.292,567.282 1151.387,561.198 1153.483,555.114C1153.728,554.597 1153.972,554.081 1154.448,553.029C1158.834,540.666 1162.989,528.839 1167.144,517.012C1167.256,516.406 1167.367,515.8 1168.193,514.967C1175.928,514.581 1182.95,514.423 1189.971,514.264C1190.254,514.441 1190.536,514.618 1191.013,515.15C1191.207,515.683 1191.206,515.859 1190.982,516.275C1190.529,517.341 1190.3,518.168 1189.853,519.287C1186.242,528.335 1182.848,537.093 1179.455,545.85C1179.08,546.631 1178.706,547.413 1178.105,548.77C1175.596,555.565 1173.315,561.784 1171.033,568.002C1170.701,568.658 1170.368,569.313 1169.781,570.556C1166.372,579.431 1163.217,587.718 1160.062,596.004C1159.552,597.117 1159.042,598.23 1158.3,599.971C1156.914,603.673 1155.76,606.747 1154.606,609.82C1154.014,611.296 1153.422,612.771 1152.55,614.829C1151.089,618.565 1149.908,621.718 1148.727,624.871C1148.186,626.235 1147.646,627.598 1146.852,629.55C1145.632,632.711 1144.665,635.284 1143.698,637.857Z" style="fill:rgb(25,34,51);fill-rule:nonzero;"/>
    </g>
    <g transform="matrix(1,0,0,1,-99.006012,-375.073181)">
        <path d="M1348.006,533.923C1345.963,533.894 1343.92,533.865 1341.031,533.794C1336.319,535.437 1332.453,537.123 1328.588,538.808C1327.579,539.68 1326.571,540.551 1325.208,541.888C1324.581,542.907 1324.308,543.46 1324.036,544.013C1323.699,544.477 1323.363,544.941 1322.719,545.9C1321.957,547.931 1321.503,549.467 1321.049,551.003C1320.758,552.1 1320.467,553.198 1320.082,555.058C1320.118,558.918 1320.249,562.014 1320.38,565.11C1320.411,565.565 1320.441,566.019 1320.665,567.112C1321.871,569.877 1322.884,572.003 1323.896,574.129C1323.896,574.129 1323.981,574.038 1323.994,574.397C1328.703,581.206 1335.005,584.616 1343.012,584.796C1344.078,584.867 1345.145,584.938 1346.983,584.976C1354.199,584.169 1359.914,581.901 1364.291,576.885C1365.49,576.288 1366.689,575.69 1368.407,575.429C1373.258,579.581 1377.589,583.396 1382.794,587.981C1377.045,592.246 1371.899,596.064 1366.753,599.881C1366.753,599.881 1366.325,599.873 1365.814,600.052C1362.475,601.295 1359.647,602.359 1356.82,603.423C1355.102,603.655 1353.384,603.887 1350.795,604.205C1341.947,603.567 1333.97,602.842 1325.992,602.117C1325.599,601.908 1325.207,601.698 1324.24,601.223C1307.623,594.033 1299.021,581.591 1297.83,564.419C1297.354,557.571 1298.757,550.592 1299.305,543.673C1300.004,542.072 1300.703,540.472 1301.72,538.271C1309.13,523.012 1321.45,515.825 1336.979,513.223C1340.028,513.153 1343.077,513.083 1346.829,513.1C1352.925,514.354 1358.319,515.521 1363.712,516.688C1364.489,517.096 1365.265,517.505 1366.548,518.195C1372.011,522.116 1376.967,525.755 1382.574,529.874C1376.303,535.035 1371.133,539.29 1365.964,543.544C1365.311,542.785 1364.658,542.025 1363.551,540.818C1358.067,538.221 1353.036,536.072 1348.006,533.923Z" style="fill:rgb(26,35,52);fill-rule:nonzero;"/>
    </g>
    <g transform="matrix(1,0,0,1,-99.006012,-375.073181)">
        <path d="M929.976,514.235C930.7,515.245 931.424,516.255 932.148,518.038C932.229,520.211 932.31,521.612 932.313,523.337C932.28,524.1 932.323,524.54 932.269,525.246C932.352,525.831 932.531,526.151 932.711,526.47C933.064,525.975 933.418,525.48 933.955,524.706C934.194,523.986 934.25,523.545 934.642,523.074C939.915,517.772 945.895,514.388 953.018,513.07C954.799,513.166 956.58,513.344 958.36,513.34C961.048,513.334 961.61,514.871 961.31,517.941C961.332,521.836 961.367,524.92 961.307,528.368C961.258,529.48 961.304,530.227 961.249,531.331C960.997,533.024 960.846,534.362 960.726,535.435L950.974,535.435C949.393,535.703 947.811,535.971 945.722,536.592C943.13,538.204 940.724,539.131 939.025,540.785C934.037,545.642 932.879,551.998 932.871,558.659C932.854,572.139 932.862,585.619 932.834,599.098C932.831,600.362 932.645,601.626 932.546,602.861L911.202,602.861L911.202,514.235L929.976,514.235Z" style="fill:rgb(25,34,51);fill-rule:nonzero;"/>
    </g>
    <g transform="matrix(1,0,0,1,-99.006012,-375.073181)">
        <path d="M692.094,591.006C692.037,592.721 691.98,594.436 691.915,597.009C691.906,599.475 691.906,601.083 691.906,602.986L670.004,602.986C669.944,602.545 669.884,602.104 669.833,600.904C669.773,597.757 669.705,595.368 669.638,592.979C669.716,568.754 669.786,544.53 669.886,520.305C669.893,518.501 670.116,516.698 671.045,514.724C678.173,514.528 684.495,514.502 690.816,514.477C690.939,514.751 691.147,514.923 691.678,515.49C691.975,540.994 692.035,566 692.094,591.006Z" style="fill:rgb(25,34,51);fill-rule:nonzero;"/>
    </g>
    <g transform="matrix(1,0,0,1,-99.006012,-375.073181)">
        <path d="M891.217,603.016C890.541,603.047 889.866,603.078 888.597,603.1C887.447,603.149 886.89,603.207 886.332,603.265C884.876,603.212 883.42,603.16 881.143,603.096C876.844,602.737 873.366,602.388 870.215,601.769C870.697,600.693 870.983,599.888 870.984,599.082C871.002,573.931 871.006,548.779 870.94,523.628C870.937,522.41 870.278,521.194 869.924,519.978C870.349,518.163 870.773,516.348 871.842,514.755C878.318,514.72 884.149,514.464 889.981,514.208C890.357,516.359 890.734,518.511 891.308,521.388C891.515,540.676 891.524,559.237 891.317,578.094C891.194,579.587 891.287,580.785 891.427,582.366C891.389,589.504 891.303,596.26 891.217,603.016Z" style="fill:rgb(25,34,50);fill-rule:nonzero;"/>
    </g>
    <g transform="matrix(1,0,0,1,-99.006012,-375.073181)">
        <path d="M694.429,481.132C694.586,482.167 694.743,483.201 694.923,484.995C694.602,487.765 694.26,489.777 693.676,491.938C693.221,492.606 693.008,493.124 692.505,493.816C690.055,495.674 687.895,497.359 685.734,499.044C682.782,499.067 679.829,499.089 676.338,498.939C674.879,498.392 673.958,498.017 673.036,497.643C671.993,496.637 670.95,495.631 669.534,494.139C668.46,492.346 667.757,491.04 667.054,489.734C667.078,487.199 667.103,484.665 667.357,481.511C671.463,472.471 677.546,470.124 687.756,473.109C688.165,473.434 688.575,473.759 689.419,474.431C691.379,476.897 692.904,479.014 694.429,481.132Z" style="fill:rgb(26,35,52);fill-rule:nonzero;"/>
    </g>
    <g transform="matrix(1,0,0,1,-99.006012,-375.073181)">
        <path d="M893.601,490.838C893.345,491.258 893.089,491.678 892.534,492.546C887.06,499.501 880.823,501.339 874.333,498.267C868.38,495.449 865.128,489.238 867.198,482.429C868.231,479.032 871.271,476.246 873.403,473.184C874.128,472.951 874.853,472.718 876.239,472.315C889.463,470.773 895.658,477.707 893.601,490.838Z" style="fill:rgb(26,35,52);fill-rule:nonzero;"/>
    </g>
    <g transform="matrix(1,0,0,1,-99.006012,-375.073181)">
        <path d="M1283.549,605.468C1283.582,605.524 1283.516,605.412 1283.549,605.468Z" style="fill:rgb(244,244,245);fill-rule:nonzero;"/>
    </g>
    <g transform="matrix(1,0,0,1,-99.006012,-375.073181)">
        <path d="M537.531,605.55C537.476,605.583 537.587,605.517 537.531,605.55Z" style="fill:rgb(244,244,245);fill-rule:nonzero;"/>
    </g>
    <g transform="matrix(1,0,0,1,-99.006012,-375.073181)">
        <path d="M625.851,599.81C625.418,578.756 625.326,557.548 625.245,536.34C625.217,529.047 625.22,521.755 625.238,513.957C625.849,514.16 626.936,514.866 626.938,515.575C627.012,543.025 626.993,570.475 626.944,597.925C626.943,598.502 626.455,599.079 625.851,599.81Z" style="fill:rgb(4,13,32);fill-rule:nonzero;"/>
    </g>
</svg>
